<svg xmlns="http://www.w3.org/2000/svg" viewBox="0 0 16 16"><path fill="currentColor" d="M8 1a7 7 0 1 0 0 14A7 7 0 0 0 8 1Zm0 1.2c1.1 0 2.1 1.3 2.7 3.3H5.3C5.9 3.5 6.9 2.2 8 2.2ZM4.6 5.5c-.3.9-.4 2-.4 3 0 1 .1 2.1.4 3-.6.2-1.2.5-1.7.9A5.8 5.8 0 0 1 2.2 8c0-1.4.5-2.7 1.3-3.7.5.4 1 .7 1.7.9Zm6.8 0c.7-.2 1.2-.5 1.7-.9.8 1 1.3 2.3 1.3 3.7 0 1.4-.5 2.7-1.3 3.7-.5-.4-1-.7-1.7-.9.3-.9.4-2 .4-3 0-1-.1-2.1-.4-3ZM8 13.8c-1.1 0-2.1-1.3-2.7-3.3h5.4c-.6 2-1.6 3.3-2.7 3.3ZM5.4 8.5c0-1 .1-1.9.3-2.7h4.6c.2.8.3 1.7.3 2.7s-.1 1.9-.3 2.7H5.7c-.2-.8-.3-1.7-.3-2.7Z"/></svg>
