<svg xmlns="http://www.w3.org/2000/svg" width="24" height="24" viewBox="0 0 24 24"><path fill="currentColor" fill-rule="evenodd" d="M12 2a10 10 0 1 0 0 20 10 10 0 0 0 0-20Zm0 1.5c1.6 0 3.1 1.9 3.9 4.9H8.1C8.9 5.4 10.4 3.5 12 3.5Zm-4.4 4.9C7.2 9.7 7 11.3 7 13s.2 3.3.6 4.6c-.9.3-1.7.7-2.4 1.2A8.5 8.5 0 0 1 3.5 12c0-2.1.8-4 2-5.4.8.5 1.6.9 2.4 1.2Zm8.8 0c.9-.3 1.7-.7 2.4-1.2A8.5 8.5 0 0 1 20.5 12c0 2.1-.8 4-2 5.4-.8-.5-1.6-.9-2.4-1.2.4-1.3.6-2.9.6-4.6s-.2-3.3-.6-4.6ZM12 20.5c-1.6 0-3.1-1.9-3.9-4.9h7.8c-.8 3-2.3 4.9-3.9 4.9ZM8.5 13c0-1.5.2-2.9.5-4h6c.3 1.1.5 2.5.5 4s-.2 2.9-.5 4h-6c-.3-1.1-.5-2.5-.5-4Z"/></svg>
