<svg xmlns="http://www.w3.org/2000/svg" viewBox="0 0 24 24" fill="#C5C5C5">
  <path d="M12 1.5a10.5 10.5 0 1 0 0 21 10.5 10.5 0 0 0 0-21Zm0 1.6c1.95 0 3.7 2.3 4.55 5.65H7.45C8.3 5.4 10.05 3.1 12 3.1Zm-5.07 5.65c-.5 1.07-.8 2.32-.86 3.65H3.18a8.9 8.9 0 0 1 1.6-4.6 9.7 9.7 0 0 0 2.15.95Zm10.14 0c.83-.21 1.55-.53 2.15-.95a8.9 8.9 0 0 1 1.6 4.6h-2.89a11.6 11.6 0 0 0-.86-3.65ZM7.66 12.4a14 14 0 0 1 .9-3.65h6.88c.5 1.07.78 2.31.9 3.65H7.66Zm-1.59 1.6h-2.89a8.9 8.9 0 0 0 1.6 4.6 9.7 9.7 0 0 1 2.15-.95 11.6 11.6 0 0 1-.86-3.65Zm1.59 0h8.68a14 14 0 0 1-.9 3.65H8.56a14 14 0 0 1-.9-3.65Zm10.27 0h2.89a8.9 8.9 0 0 1-1.6 4.6 9.7 9.7 0 0 0-2.15-.95c.5-1.07.8-2.32.86-3.65ZM12 20.9c-1.95 0-3.7-2.3-4.55-5.65h9.1C15.7 18.6 13.95 20.9 12 20.9Zm0-17.8V1.5m0 21v-1.6m-9.5-9.4H1m22 0h-1.5"/>
</svg>
